<svg width="231" height="30" viewBox="0 0 231 30" fill="none" xmlns="http://www.w3.org/2000/svg">
<path d="M39.5 14.8125L19.75 29.625L19.75 1.7266e-06L39.5 14.8125Z" fill="url(#paint0_linear)"/>
<path d="M29.625 14.8125L9.875 29.625L9.875 1.7266e-06L29.625 14.8125Z" fill="url(#paint1_linear)"/>
<path d="M19.75 14.8125L0 29.625L-2.5899e-06 1.7266e-06L19.75 14.8125Z" fill="url(#paint2_linear)"/>
<path d="M46.776 23.5V6.46H52.968C54.824 6.46 56.376 6.844 57.624 7.612C58.872 8.364 59.808 9.388 60.432 10.684C61.056 11.964 61.368 13.388 61.368 14.956C61.368 16.684 61.024 18.188 60.336 19.468C59.648 20.748 58.672 21.74 57.408 22.444C56.144 23.148 54.664 23.5 52.968 23.5H46.776ZM58.032 14.956C58.032 13.852 57.832 12.884 57.432 12.052C57.032 11.204 56.456 10.548 55.704 10.084C54.952 9.604 54.04 9.364 52.968 9.364H50.088V20.596H52.968C54.056 20.596 54.976 20.356 55.728 19.876C56.48 19.38 57.048 18.708 57.432 17.86C57.832 16.996 58.032 16.028 58.032 14.956ZM75.7877 20.596V23.5H63.9557V6.46H75.5717V9.364H67.2677V13.468H74.4437V16.156H67.2677V20.596H75.7877ZM80.1217 6.46L84.7298 19.564L89.2898 6.46H92.7698L86.3138 23.5H83.1218L76.6418 6.46H80.1217ZM106.421 20.596V23.5H94.5885V6.46H106.205V9.364H97.9005V13.468H105.077V16.156H97.9005V20.596H106.421ZM109.003 23.5V6.46H112.315V20.596H121.003V23.5H109.003ZM129.915 23.62C128.667 23.62 127.531 23.38 126.507 22.9C125.499 22.42 124.627 21.772 123.891 20.956C123.171 20.124 122.611 19.196 122.211 18.172C121.811 17.132 121.611 16.068 121.611 14.98C121.611 13.844 121.819 12.764 122.235 11.74C122.651 10.7 123.235 9.78 123.987 8.98C124.739 8.164 125.619 7.524 126.627 7.06C127.651 6.58 128.771 6.34 129.987 6.34C131.219 6.34 132.339 6.588 133.347 7.084C134.371 7.58 135.243 8.244 135.963 9.076C136.699 9.908 137.259 10.844 137.643 11.884C138.043 12.908 138.243 13.956 138.243 15.028C138.243 16.148 138.035 17.228 137.619 18.268C137.203 19.292 136.619 20.212 135.867 21.028C135.131 21.828 134.251 22.46 133.227 22.924C132.219 23.388 131.115 23.62 129.915 23.62ZM124.971 14.98C124.971 15.972 125.163 16.9 125.547 17.764C125.947 18.628 126.515 19.332 127.251 19.876C128.003 20.42 128.899 20.692 129.939 20.692C131.011 20.692 131.915 20.412 132.651 19.852C133.387 19.292 133.947 18.572 134.331 17.692C134.715 16.812 134.907 15.908 134.907 14.98C134.907 13.988 134.707 13.06 134.307 12.196C133.907 11.332 133.331 10.636 132.579 10.108C131.843 9.564 130.963 9.292 129.939 9.292C128.867 9.292 127.963 9.572 127.227 10.132C126.491 10.692 125.931 11.412 125.547 12.292C125.163 13.156 124.971 14.052 124.971 14.98ZM154.68 23.5V12.316L150.312 20.644H148.464L144.096 12.316V23.5H140.784V6.46H144.336L149.376 16.156L154.464 6.46H157.992V23.5H154.68ZM166.181 6.46H169.541L175.805 23.5H172.397L170.813 19.252H164.861L163.301 23.5H159.893L166.181 6.46ZM170.213 16.924L167.861 9.892L165.413 16.924H170.213ZM180.986 12.556V23.5H177.674V6.46H180.314L189.122 17.692V6.484H192.434V23.5H189.674L180.986 12.556ZM194.947 14.86C194.947 13.82 195.131 12.796 195.499 11.788C195.883 10.78 196.435 9.868 197.155 9.052C197.875 8.236 198.755 7.588 199.795 7.108C200.835 6.612 202.019 6.364 203.347 6.364C204.899 6.364 206.251 6.708 207.403 7.396C208.555 8.084 209.411 8.98 209.971 10.084L207.427 11.836C207.139 11.196 206.763 10.692 206.299 10.324C205.835 9.956 205.331 9.692 204.787 9.532C204.259 9.372 203.747 9.292 203.251 9.292C202.419 9.292 201.691 9.46 201.067 9.796C200.459 10.132 199.947 10.572 199.531 11.116C199.115 11.66 198.803 12.268 198.595 12.94C198.403 13.612 198.307 14.284 198.307 14.956C198.307 15.964 198.515 16.908 198.931 17.788C199.347 18.652 199.931 19.356 200.683 19.9C201.435 20.444 202.307 20.716 203.299 20.716C203.811 20.716 204.339 20.628 204.883 20.452C205.443 20.276 205.955 19.996 206.419 19.612C206.883 19.228 207.243 18.732 207.499 18.124L210.211 19.684C209.859 20.532 209.307 21.252 208.555 21.844C207.803 22.42 206.955 22.868 206.011 23.188C205.067 23.492 204.131 23.644 203.203 23.644C201.987 23.644 200.875 23.396 199.867 22.9C198.875 22.388 198.011 21.716 197.275 20.884C196.539 20.036 195.963 19.092 195.547 18.052C195.147 16.996 194.947 15.932 194.947 14.86ZM213.907 6.46L218.107 14.476L222.379 6.46H225.955L219.763 17.548V23.5H216.475V17.5L210.307 6.46H213.907Z" fill="#333333"/>
<defs>
<linearGradient id="paint0_linear" x1="39.5" y1="29.8719" x2="19.75" y2="29.8719" gradientUnits="userSpaceOnUse">
<stop stop-color="#EC4242"/>
<stop offset="1" stop-color="#B05252"/>
</linearGradient>
<linearGradient id="paint1_linear" x1="29.625" y1="29.8719" x2="9.875" y2="29.8719" gradientUnits="userSpaceOnUse">
<stop stop-color="#EC4242"/>
<stop offset="1" stop-color="#B05252"/>
</linearGradient>
<linearGradient id="paint2_linear" x1="9.875" y1="29.625" x2="-20.7375" y2="29.8719" gradientUnits="userSpaceOnUse">
<stop stop-color="#EC4242"/>
<stop offset="1" stop-color="#AC2F2F"/>
</linearGradient>
</defs>
</svg>
